<?xml version="1.0" encoding="iso-8859-1"?>
<!-- Generator: Adobe Illustrator 19.0.0, SVG Export Plug-In . SVG Version: 6.00 Build 0)  -->
<svg version="1.1" id="Layer_1"
	xmlns="http://www.w3.org/2000/svg"
	xmlns:xlink="http://www.w3.org/1999/xlink" x="0px" y="0px" viewBox="0 0 2502 2502" style="enable-background:new 0 0 2502 2502;" xml:space="preserve">
	<g>
		<path style="fill:#8A501F;" d="M39.938,163.295l20.536,20.536l32.541,32.541c5.322,5.322,13.95,5.322,19.272,0
		c5.322-5.322,5.322-13.95,0-19.272l31.909,31.909c5.322,5.322,13.95,5.322,19.272,0l0,0c5.322-5.322,5.322-13.95,0-19.272
		l9.636,9.636c5.322,5.322,13.95,5.322,19.272,0s5.322-13.95,0-19.272l-15.639-15.639c5.322,5.322,13.95,5.322,19.272,0l0,0
		c5.322-5.322,5.322-13.95,0-19.272l-57.782-57.782l-0.063-0.2l24.04,3.957c12.427,1.896,18.229-5.016,18.229-12.542l0,0
		c0-7.526-3.896-13.164-14.533-15.797L102.213,62.69l-0.005,0.014l-6.836-1.26c-3.271-0.603-8.385-2.628-14.386-5.207
		c-32.207,14.956-56.825,43.488-66.503,78.25C26.652,151.086,39.938,163.295,39.938,163.295z"/>
		<g>
			<path style="fill:#FF2E3D;" d="M492,167.421c0-67.671-54.858-122.529-122.529-122.529c-56.842,0-104.628,38.711-118.471,91.203
			c-13.844-52.492-61.63-91.203-118.471-91.203c-18.413,0-35.874,4.069-51.543,11.346c6.001,2.579,11.116,4.604,14.386,5.207
			l6.836,1.26l0.005-0.014L165.9,82.827c10.636,2.633,14.533,8.271,14.533,15.797l0,0c0,7.526-5.802,14.437-18.229,12.542
			l-24.04-3.957l0.063,0.2l57.782,57.782c5.322,5.322,5.322,13.95,0,19.272l0,0c-5.322,5.322-13.95,5.322-19.272,0l15.639,15.639
			c5.322,5.322,5.322,13.95,0,19.272s-13.95,5.322-19.272,0l-9.636-9.636c5.322,5.322,5.322,13.95,0,19.272l0,0
			c-5.322,5.322-13.95,5.322-19.272,0l-31.909-31.909c5.322,5.322,5.322,13.95,0,19.272s-13.95,5.322-19.272,0L60.473,183.83
			l-20.536-20.536c0,0-13.286-12.208-25.455-28.806C11.565,144.968,10,156.011,10,167.421c0,67.671,74.678,128.234,122.529,176.084
			C192.17,403.146,251,457.108,251,457.108s55.062-50.744,108.583-103.763c-28.761,10.603-55.878-16.283-55.878-16.283
			l-20.536-20.536l-32.541-32.541c-5.322-5.322-5.322-13.95,0-19.272s13.95-5.322,19.272,0l-31.909-31.909
			c-5.322-5.322-5.322-13.95,0-19.272s13.95-5.322,19.272,0l-9.636-9.636c-5.322-5.322-5.322-13.95,0-19.272l0,0
			c5.322-5.322,13.95-5.322,19.272,0l15.639,15.639c-5.322-5.322-5.322-13.95,0-19.272s13.95-5.322,19.272,0l57.781,57.782
			l0.2,0.063l-3.957-24.04c-1.896-12.427,5.016-18.229,12.542-18.229l0,0c7.526,0,13.164,3.896,15.797,14.533l20.136,63.687
			l-0.014,0.005l1.26,6.836c1.655,8.977,2.949,18.112,0.8,26.087C448.312,266.78,492,219.18,492,167.421z"/>
			<path style="fill:#EBD2B4;" d="M405.555,281.628l-1.26-6.836l0.014-0.005L384.173,211.1c-2.633-10.636-8.271-14.533-15.797-14.533
			l0,0c-7.526,0-14.438,5.802-12.542,18.229l3.957,24.04l-0.2-0.063l-57.781-57.782c-5.322-5.322-13.95-5.322-19.272,0
			s-5.322,13.95,0,19.272l-15.639-15.639c-5.322-5.322-13.95-5.322-19.272,0l0,0c-5.322,5.322-5.322,13.95,0,19.272l9.636,9.636
			c-5.322-5.322-13.95-5.322-19.272,0s-5.322,13.95,0,19.272l31.909,31.909c-5.322-5.322-13.95-5.322-19.272,0
			s-5.322,13.95,0,19.272l32.541,32.541l20.536,20.536c0,0,27.117,26.886,55.878,16.283c3.306-3.275,6.607-6.559,9.888-9.84
			c11.251-11.251,23.986-23.206,36.884-35.79C408.505,299.74,407.21,290.605,405.555,281.628z"/>
		</g>
		<g>
			<path d="M244.24,464.478c1.912,1.754,4.336,2.63,6.76,2.63c2.432,0,4.862-0.882,6.776-2.646l140.366-134.908
			C444.414,285.08,502,229.73,502,167.421c0-73.077-59.452-132.529-132.528-132.529c-50.836,0-96.358,28.998-118.472,73.064
			c-22.113-44.066-67.636-73.064-118.472-73.064C59.452,34.892,0,94.344,0,167.421c0,62.31,57.586,117.659,103.857,162.133
			L244.24,464.478z M128.63,110.224l0.063,0.201c0.483,1.53,1.328,2.921,2.463,4.056l57.781,57.781
			c1.414,1.414,1.414,3.716,0.001,5.129c-1.417,1.416-3.717,1.414-5.132,0c-0.004-0.004-0.008-0.007-0.012-0.011
			s-0.007-0.009-0.011-0.013l-40.736-40.462c-3.918-3.892-10.251-3.871-14.142,0.047c-3.893,3.918-3.871,10.25,0.048,14.142
			l40.705,40.431c0.003,0.003,0.005,0.005,0.007,0.008l15.64,15.639c0.924,0.924,1.063,2.004,1.063,2.564
			c0,0.561-0.139,1.641-1.063,2.565s-2.003,1.062-2.564,1.062c-0.561,0-1.641-0.138-2.564-1.063l-9.636-9.636l-49.602-49.602
			c-3.906-3.905-10.236-3.905-14.143,0c-3.905,3.905-3.905,10.237,0,14.143l49.602,49.602l0.011,0.01
			c1.403,1.415,1.4,3.708-0.01,5.119c-1.415,1.413-3.716,1.415-5.131,0l-31.909-31.909l0,0L96.61,167.281
			c-3.905-3.905-10.235-3.905-14.143,0c-3.905,3.905-3.905,10.237,0,14.142l22.742,22.743c0.002,0.002,0.003,0.003,0.005,0.005
			l0.012,0.012c0.914,0.922,1.052,1.994,1.052,2.553c0,0.561-0.139,1.64-1.063,2.565c-0.925,0.924-2.004,1.062-2.564,1.062
			s-1.64-0.138-2.564-1.063L47.01,156.223c-0.186-0.186-0.379-0.364-0.579-0.534c-0.146-0.125-14.618-12.904-15.237-28.605
			c-0.33-8.374,3.294-16.228,11.078-24.012l22.991-22.991c7.41-7.411,17.987-10.705,28.297-8.801l6.345,1.169l62.981,19.913
			c0.202,0.064,0.406,0.122,0.612,0.172c6.936,1.717,6.936,3.94,6.936,6.09c0,0.52-0.092,1.47-0.706,1.998
			c-0.75,0.644-2.71,1.153-5.965,0.666l-23.974-3.947c-3.427-0.564-6.906,0.692-9.183,3.32S127.581,106.909,128.63,110.224z
			 M260.265,270.722c0.562,0,1.641,0.138,2.564,1.062l0,0c0.002,0.002,0.003,0.003,0.005,0.005l22.742,22.742
			c1.953,1.953,4.512,2.929,7.071,2.929c2.559,0,5.118-0.977,7.071-2.929c3.905-3.905,3.905-10.237,0-14.142l-22.747-22.748l0,0
			l-31.909-31.909c-1.414-1.415-1.414-3.716-0.001-5.13c1.414-1.412,3.713-1.415,5.13-0.002l0.001,0.001l49.601,49.602
			c1.953,1.953,4.512,2.929,7.071,2.929c2.559,0,5.118-0.977,7.071-2.929c3.905-3.905,3.905-10.237,0-14.142l-49.601-49.602
			c-0.002-0.002-0.003-0.003-0.005-0.005l-9.632-9.631c-1.414-1.415-1.414-3.716-0.001-5.13c1.415-1.413,3.716-1.415,5.131,0
			l15.609,15.609c0.004,0.004,0.009,0.009,0.013,0.013l39.454,39.728c1.955,1.969,4.524,2.954,7.096,2.954
			c2.548,0,5.096-0.968,7.047-2.904c3.918-3.892,3.94-10.224,0.049-14.142l-39.462-39.737c-0.003-0.003-0.007-0.006-0.011-0.01
			c-0.005-0.005-0.009-0.01-0.014-0.015l-0.012-0.012c-0.914-0.922-1.052-1.994-1.052-2.553c0-0.562,0.139-1.641,1.063-2.565
			c0.924-0.924,2.003-1.062,2.564-1.062s1.641,0.138,2.564,1.063l57.782,57.782c1.139,1.138,2.534,1.984,4.07,2.468l0.2,0.063
			c3.313,1.042,6.931,0.291,9.554-1.985c2.624-2.276,3.879-5.751,3.314-9.178l-3.947-23.976c-0.488-3.254,0.022-5.213,0.666-5.962
			c0.527-0.614,1.479-0.706,1.998-0.706c2.149,0,4.373,0,6.09,6.936c0.051,0.206,0.108,0.41,0.172,0.612l19.913,62.978l1.171,6.348
			c1.899,10.308-1.391,20.886-8.802,28.297l-22.992,22.992c-7.46,7.46-14.983,11.098-22.968,11.098
			c-0.313,0-0.628-0.006-0.941-0.017c-15.801-0.562-28.604-15.123-28.708-15.242c-0.17-0.2-0.349-0.393-0.534-0.578l-53.077-53.077
			c-0.924-0.924-1.062-2.004-1.062-2.565s0.138-1.64,1.063-2.565C258.624,270.86,259.703,270.722,260.265,270.722z M415.963,283.982
			c-0.141-1.39-0.318-2.78-0.574-4.167l-1.155-6.266c-0.074-0.593-0.203-1.187-0.39-1.776l-20.047-63.4
			c-4.834-18.962-17.985-21.805-25.422-21.805c-6.722,0-12.979,2.797-17.169,7.674c-2.727,3.174-5.643,8.41-5.694,16.311
			l-36.632-36.631c-4.462-4.463-10.396-6.92-16.707-6.92s-12.245,2.458-16.706,6.92c-0.875,0.875-1.673,1.806-2.391,2.785
			c-9.265-8.355-23.602-8.071-32.521,0.849c-6.867,6.868-8.615,16.945-5.243,25.447c-1.564,0.955-3.041,2.109-4.393,3.46
			c-9.211,9.212-9.211,24.201,0,33.414l15.396,15.396c-0.97,0.712-1.892,1.503-2.758,2.37c-4.464,4.462-6.921,10.396-6.921,16.707
			c0,6.312,2.457,12.245,6.92,16.708l52.851,52.851c2.334,2.62,16.745,17.946,36.859,21.275
			c-35.305,34.432-68.458,65.45-82.279,78.301c-17.149-15.898-64.264-59.925-111.389-107.05
			c-6.872-6.872-14.164-13.88-21.883-21.299C74.182,273.29,20,221.213,20,167.421c0-3.954,0.208-7.86,0.607-11.71
			c5.229,8.163,10.972,13.533,12.484,14.88l52.852,52.851c4.462,4.463,10.396,6.921,16.707,6.921s12.245-2.458,16.706-6.92
			c0.867-0.867,1.659-1.789,2.371-2.759l15.397,15.397c4.605,4.606,10.656,6.909,16.706,6.909c6.051,0,12.102-2.303,16.708-6.909
			c1.349-1.348,2.5-2.821,3.453-4.381c2.746,1.093,5.703,1.665,8.747,1.665c6.312,0,12.245-2.458,16.706-6.92
			c4.464-4.462,6.922-10.396,6.922-16.708c0-5.9-2.148-11.47-6.074-15.816c0.975-0.712,1.907-1.507,2.787-2.387
			c9.211-9.212,9.211-24.201,0-33.413l-36.633-36.633c7.9-0.052,13.138-2.968,16.312-5.694c4.877-4.189,7.674-10.447,7.674-17.169
			c0-7.437-2.843-20.587-21.804-25.422l-53.6-16.947c5.704-0.895,11.548-1.363,17.5-1.363c51.056,0,95.797,34.441,108.803,83.754
			c1.157,4.391,5.128,7.45,9.669,7.45s8.512-3.059,9.669-7.45c13.006-49.313,57.747-83.754,108.803-83.754
			C431.52,54.892,482,105.373,482,167.421C482,208.546,450.332,248.668,415.963,283.982z"/>
			<path d="M459,156c-5.522,0-10,4.477-10,10c0,9.154-1.53,18.127-4.55,26.668c-1.84,5.208,0.89,10.92,6.097,12.761
			c1.102,0.39,2.226,0.575,3.332,0.575c4.119,0,7.978-2.565,9.429-6.67C467.085,188.646,469,177.431,469,166
			C469,160.477,464.522,156,459,156z"/>
			<path d="M453.879,146.003c1.105,0,2.23-0.185,3.332-0.574c5.207-1.841,7.937-7.554,6.097-12.761C449.214,92.792,411.314,66,369,66
			c-22.505,0-43.76,7.301-61.466,21.115c-4.354,3.397-5.13,9.681-1.733,14.035c3.398,4.355,9.682,5.13,14.036,1.733
			C333.995,91.838,350.995,86,369,86c33.854,0,64.176,21.433,75.45,53.333C445.901,143.438,449.76,146.003,453.879,146.003z"/>
			<path d="M150.988,293.348c-3.951-3.861-10.282-3.786-14.141,0.164c-3.86,3.95-3.786,10.282,0.164,14.141l15.999,15.632
			c1.945,1.901,4.467,2.848,6.987,2.848c2.599,0,5.194-1.006,7.153-3.011c3.86-3.95,3.786-10.282-0.164-14.141L150.988,293.348z"/>
			<path d="M177.848,333.571c-3.86,3.951-3.786,10.282,0.164,14.142l68,66.44c1.945,1.9,4.467,2.847,6.987,2.847
			c2.599,0,5.194-1.006,7.153-3.011c3.86-3.951,3.786-10.282-0.164-14.142l-68-66.44
			C188.037,329.547,181.706,329.621,177.848,333.571z"/>
		</g>
	</g>
	<g>
	</g>
	<g>
	</g>
	<g>
	</g>
	<g>
	</g>
	<g>
	</g>
	<g>
	</g>
	<g>
	</g>
	<g>
	</g>
	<g>
	</g>
	<g>
	</g>
	<g>
	</g>
	<g>
	</g>
	<g>
	</g>
	<g>
	</g>
	<g>
	</g>
</svg>
